<?xml version="1.0" standalone="no"?>
<!DOCTYPE svg PUBLIC "-//W3C//DTD SVG 20010904//EN"
 "http://www.w3.org/TR/2001/REC-SVG-20010904/DTD/svg10.dtd">
<svg version="1.0" xmlns="http://www.w3.org/2000/svg"
 width="25px" height="5px" viewBox="0 0 24.000000 24.000000"
 preserveAspectRatio="xMidYMid meet">

<g transform="translate(0.000000,24.000000) scale(0.100000,-0.100000)"
fill="#FFF " stroke="none">
<path d="M82 215 c-11 -14 -24 -25 -30 -25 -13 0 -22 -50 -22 -126 l0 -64 90
0 90 0 0 64 c0 76 -9 126 -22 126 -6 0 -19 11 -30 25 -11 14 -28 25 -38 25
-10 0 -27 -11 -38 -25z m66 -12 c2 -9 -7 -13 -27 -13 -30 0 -39 9 -24 24 11
10 46 3 51 -11z m-78 -53 c0 -11 5 -20 10 -20 6 0 10 9 10 20 0 16 7 20 30 20
23 0 30 -4 30 -20 0 -11 5 -20 10 -20 6 0 10 9 10 20 0 11 5 20 10 20 6 0 10
-20 10 -44 0 -24 3 -58 6 -75 l7 -31 -83 0 -82 0 6 31 c3 17 6 51 6 75 0 24 5
44 10 44 6 0 10 -9 10 -20z"/>
</g>
</svg>
